<svg xmlns="http://www.w3.org/2000/svg" viewBox="0 0 64 64" id="brazil"><g><path fill="#1f3d8f" d="M32 22a10 10 0 1 0 9.82 11.86A9.463 9.463 0 0 0 42 32a10 10 0 0 0-10-10Z"></path><path fill="#ffd45d" d="M41.82 33.86A9.463 9.463 0 0 0 42 32a10.032 10.032 0 1 0-.18 1.86ZM59 32 32 49 5 32l27-17Z"></path><path fill="#009b3a" d="M63 5v54a4 4 0 0 1-4 4H5a4 4 0 0 1-4-4V5a4 4 0 0 1 4-4h54a4 4 0 0 1 4 4ZM32 49l27-17-27-17L5 32Z"></path><path fill="#162a63" d="M32 42a9.955 9.955 0 0 0 7.127-3H24.866A9.968 9.968 0 0 0 32 42Z"></path><path fill="#ffb844" d="m32 49 27-17-1.226-.772A21.948 21.948 0 0 1 41 39h-1.873a9.974 9.974 0 0 1-14.261 0H23a21.948 21.948 0 0 1-16.774-7.772L5 32Z"></path><path fill="#00802f" d="M59 32 32 49 5 32l1.226-.772A21.908 21.908 0 0 1 1 17v42a4 4 0 0 0 4 4h54a4 4 0 0 0 4-4V17a21.908 21.908 0 0 1-5.226 14.228Z"></path><path fill="#e9edf5" d="M41.966 32.711A26.664 26.664 0 0 0 22.9 27.878a9.87 9.87 0 0 0-.416 1.052 10.194 10.194 0 0 0-.267 1.049c.131-.023.261-.04.414-.06a24.468 24.468 0 0 1 18.592 4.74l.144.112a.979.979 0 0 0 .2.114 10.033 10.033 0 0 0 .256-1.025 9.2 9.2 0 0 0 .143-1.149Z"></path><path fill="#006927" d="M59 59H5a4 4 0 0 1-4-4v4a4 4 0 0 0 4 4h54a4 4 0 0 0 4-4v-4a4 4 0 0 1-4 4Z"></path><path fill="#00ba46" d="M59 1H5a4 4 0 0 0-4 4v4a4 4 0 0 1 4-4h54a4 4 0 0 1 4 4V5a4 4 0 0 0-4-4Z"></path></g></svg>