<svg xmlns="http://www.w3.org/2000/svg" width="24" height="24" viewBox="0 0 24 24" fill="none">
  <path d="M7.78493 23.9991C5.7523 24.007 3.79252 23.2416 2.30193 21.8577C1.57602 21.1856 0.996792 20.3703 0.600646 19.4632C0.204499 18.556 0 17.5767 0 16.5866C0 15.5965 0.204499 14.6171 0.600646 13.71C0.996792 12.8029 1.57602 11.9876 2.30193 11.3154L12.6648 1.51437C13.7306 0.540133 15.1215 0 16.5646 0C18.0076 0 19.3986 0.540133 20.4644 1.51437C21.0201 2.03097 21.4656 2.65483 21.7742 3.3484C22.0828 4.04197 22.2481 4.79089 22.2601 5.5501C22.2638 6.20621 22.1317 6.85597 21.8722 7.45843C21.6127 8.06088 21.2314 8.60296 20.7522 9.05047L10.3756 18.8652C9.74951 19.447 8.92693 19.7703 8.07279 19.7703C7.21865 19.7703 6.39607 19.447 5.76993 18.8652C5.45924 18.5786 5.21125 18.2305 5.04163 17.843C4.87201 17.4556 4.78444 17.0371 4.78444 16.614C4.78444 16.191 4.87201 15.7725 5.04163 15.385C5.21125 14.9975 5.45924 14.6495 5.76993 14.3628L15.3652 5.31674C15.5579 5.12394 15.8192 5.01565 16.0917 5.01565C16.3641 5.01565 16.6254 5.12394 16.8182 5.31674C17.0107 5.50978 17.1188 5.77144 17.1188 6.04427C17.1188 6.31709 17.0107 6.57876 16.8182 6.7718L7.22292 15.8179C7.1153 15.9119 7.02904 16.028 6.96993 16.1582C6.91082 16.2884 6.88024 16.4298 6.88024 16.5728C6.88024 16.7159 6.91082 16.8573 6.96993 16.9875C7.02904 17.1177 7.1153 17.2338 7.22292 17.3278C7.47121 17.5405 7.78719 17.6574 8.11391 17.6574C8.44063 17.6574 8.75661 17.5405 9.0049 17.3278L19.3815 7.54051C19.6455 7.2814 19.8544 6.97151 19.9958 6.62945C20.1371 6.2874 20.2079 5.92026 20.2039 5.5501C20.1926 5.07299 20.0847 4.60315 19.8868 4.16901C19.6889 3.73487 19.405 3.34546 19.0525 3.02434C18.3758 2.39626 17.4872 2.0473 16.5646 2.0473C15.6419 2.0473 14.7534 2.39626 14.0767 3.02434L3.75493 12.8117C3.23222 13.2913 2.81484 13.8746 2.52931 14.5245C2.24377 15.1744 2.09632 15.8766 2.09632 16.5866C2.09632 17.2966 2.24377 17.9988 2.52931 18.6487C2.81484 19.2985 3.23222 19.8818 3.75493 20.3615C4.87142 21.4036 6.34092 21.9831 7.86718 21.9831C9.39344 21.9831 10.8629 21.4036 11.9794 20.3615L22.2463 10.6291C22.3409 10.5319 22.4538 10.4548 22.5786 10.402C22.7034 10.3493 22.8374 10.3222 22.9728 10.3222C23.1083 10.3222 23.2423 10.3493 23.3671 10.402C23.4919 10.4548 23.6048 10.5319 23.6993 10.6291C23.8919 10.8221 24 11.0838 24 11.3566C24 11.6294 23.8919 11.8911 23.6993 12.0841L13.3502 21.8577C11.8396 23.2625 9.84615 24.0295 7.78493 23.9991Z" fill="#4C956C"/>
</svg>