<svg width="24" height="24" viewBox="0 0 24 24" fill="none" xmlns="http://www.w3.org/2000/svg">
<path d="M23.9516 9.05896C23.8967 8.87633 23.7938 8.71365 23.6548 8.58964C23.5157 8.46563 23.3461 8.38532 23.1654 8.35795L16.0636 7.27208L12.8795 0.523178C12.7889 0.363696 12.6603 0.231635 12.5065 0.139925C12.3526 0.0482152 12.1786 0 12.0016 0C11.8246 0 11.6507 0.0482152 11.4968 0.139925C11.3429 0.231635 11.2143 0.363696 11.1237 0.523178L7.93967 7.27208L0.837825 8.35795C0.657167 8.38532 0.487544 8.46563 0.348465 8.58964C0.209386 8.71365 0.106501 8.87633 0.0516424 9.05896C-0.00692249 9.24091 -0.0158735 9.4364 0.0257988 9.6234C0.067471 9.8104 0.158109 9.98148 0.287497 10.1173L5.4501 15.368L4.23151 22.7904C4.20063 22.9815 4.22104 23.1779 4.29046 23.3575C4.35988 23.5371 4.47558 23.693 4.6246 23.8076C4.77387 23.9191 4.94991 23.9847 5.13283 23.9969C5.31575 24.009 5.49826 23.9672 5.65974 23.8763L12.0016 20.3713L18.3566 23.8763C18.4972 23.9572 18.6549 23.9997 18.8152 24C19.0214 23.9975 19.2221 23.9305 19.3917 23.8076C19.5408 23.693 19.6565 23.5371 19.7259 23.3575C19.7953 23.1779 19.8157 22.9815 19.7848 22.7904L18.5531 15.368L23.7026 10.1173C23.8343 9.98296 23.9274 9.81256 23.9714 9.62549C24.0154 9.43842 24.0085 9.24215 23.9516 9.05896Z" fill="#F5D112"/>
</svg>
