<svg width="24" height="24" viewBox="0 0 24 24" fill="none" xmlns="http://www.w3.org/2000/svg">
<path d="M18.8127 24C18.6524 23.9997 18.4947 23.9572 18.3541 23.8763L12 20.3713L5.64588 23.8763C5.48442 23.9672 5.30193 24.009 5.11903 23.9969C4.93614 23.9847 4.76013 23.9191 4.61088 23.8076C4.46187 23.693 4.34619 23.5371 4.27678 23.3575C4.20737 23.1779 4.18696 22.9815 4.21784 22.7904L5.44936 15.368L0.287458 10.1173C0.158088 9.98148 0.0674619 9.8104 0.0257953 9.6234C-0.0158714 9.4364 -0.00692155 9.24091 0.0516355 9.05896C0.106486 8.87633 0.209358 8.71365 0.348418 8.58964C0.487478 8.46563 0.657078 8.38532 0.837712 8.35795L7.9386 7.27208L11.1222 0.523178C11.2128 0.363696 11.3414 0.231635 11.4952 0.139925C11.6491 0.0482152 11.823 0 12 0C12.177 0 12.3509 0.0482152 12.5048 0.139925C12.6586 0.231635 12.7872 0.363696 12.8778 0.523178L16.0614 7.27208L23.1623 8.35795C23.3429 8.38532 23.5125 8.46563 23.6516 8.58964C23.7906 8.71365 23.8935 8.87633 23.9484 9.05896C24.0069 9.24091 24.0159 9.4364 23.9742 9.6234C23.9325 9.8104 23.8419 9.98148 23.7125 10.1173L18.5506 15.368L19.7691 22.7904C19.7999 22.9815 19.7795 23.1779 19.7101 23.3575C19.6407 23.5371 19.525 23.693 19.376 23.8076C19.2101 23.9279 19.0143 23.9948 18.8127 24ZM12 18.1858C12.1586 18.1878 12.3149 18.2252 12.4585 18.2957L17.5025 21.0448L16.5461 15.1481C16.5202 14.9827 16.5316 14.8132 16.5794 14.6533C16.6271 14.4934 16.71 14.3474 16.8213 14.2272L20.9089 10.1036L15.2622 9.2239C15.1061 9.19783 14.9581 9.13312 14.8305 9.03512C14.7029 8.93712 14.5994 8.80865 14.5285 8.66034L12 3.29971L9.47145 8.67409C9.4006 8.82239 9.2971 8.95086 9.16951 9.04886C9.04193 9.14686 8.89394 9.21157 8.73778 9.23764L3.09113 10.1036L7.17873 14.2272C7.29001 14.3474 7.37287 14.4934 7.42065 14.6533C7.46843 14.8132 7.4798 14.9827 7.45386 15.1481L6.49746 21.086L11.5415 18.337C11.682 18.2522 11.8385 18.2006 12 18.1858Z" fill="#F5D112"/>
</svg>
