<svg width="155" height="156" viewBox="0 0 155 156" fill="none" xmlns="http://www.w3.org/2000/svg">
<path d="M143.16 0H117.99V36.67H154.82V10.34C154.83 10.34 153 1 143.16 0Z" fill="#1967D2"/>
<path d="M118 155.5V155.59V155.67L154.83 119H154.5L118 155.5Z" fill="#1967D2"/>
<path d="M154.83 119V118.67L154.5 119H154.83Z" fill="#FBBC05"/>
<path d="M154.83 36.67H118V118.67H154.83V36.67Z" fill="#FBBC05"/>
<path d="M154.5 119H118V155.5L154.5 119Z" fill="#EA4335"/>
<path d="M118 119H154.5L154.83 118.67H118V119Z" fill="#EA4335"/>
<path d="M117.91 155.59H118V155.5L117.91 155.59Z" fill="#34A853"/>
<path d="M36 118.67V155.59H117.91L118 118.67H36Z" fill="#34A853"/>
<path d="M118 119V118.67L117.91 155.59L118 155.5V119Z" fill="#34A853"/>
<path d="M0 118.67V144.34C0.33 152.67 9.28999 155.59 9.28999 155.59H36V118.67H0Z" fill="#188038"/>
<path d="M36 36.67H118V0H10.33C10.33 0 0.66 1 0 11.33V118.67H36V36.67Z" fill="#4285F4"/>
<path d="M62.827 102.072C60.951 102.072 59.142 101.826 57.4 101.335C55.7027 100.844 54.1393 100.107 52.71 99.124C51.2807 98.0967 50.0077 96.8237 48.891 95.305C47.819 93.7863 46.9927 92.022 46.412 90.012L54.653 86.729C55.2337 88.9623 56.2163 90.6597 57.601 91.821C58.9857 92.9377 60.7277 93.496 62.827 93.496C63.765 93.496 64.6583 93.362 65.507 93.094C66.3557 92.7813 67.0927 92.357 67.718 91.821C68.3433 91.285 68.8347 90.6597 69.192 89.945C69.594 89.1857 69.795 88.337 69.795 87.399C69.795 85.4337 69.058 83.8927 67.584 82.776C66.1547 81.6593 64.167 81.101 61.621 81.101H57.668V73.128H61.286C62.1793 73.128 63.0503 73.0163 63.899 72.793C64.7477 72.5697 65.4847 72.2347 66.11 71.788C66.78 71.2967 67.2937 70.6937 67.651 69.979C68.053 69.2197 68.254 68.3487 68.254 67.366C68.254 65.8473 67.718 64.619 66.646 63.681C65.574 62.6983 64.1223 62.207 62.291 62.207C60.3257 62.207 58.807 62.743 57.735 63.815C56.7077 64.8423 55.993 66.0037 55.591 67.299L47.551 64.016C47.953 62.8993 48.556 61.7603 49.36 60.599C50.164 59.393 51.169 58.321 52.375 57.383C53.6257 56.4003 55.0773 55.6187 56.73 55.038C58.3827 54.4127 60.281 54.1 62.425 54.1C64.6137 54.1 66.6013 54.4127 68.388 55.038C70.2193 55.6633 71.7827 56.5343 73.078 57.651C74.3733 58.723 75.3783 60.0183 76.093 61.537C76.8077 63.011 77.165 64.619 77.165 66.361C77.165 67.701 76.9863 68.907 76.629 69.979C76.3163 71.051 75.892 72.0113 75.356 72.86C74.82 73.7087 74.1947 74.4457 73.48 75.071C72.81 75.6517 72.1177 76.1207 71.403 76.478V77.014C73.547 77.8627 75.3113 79.225 76.696 81.101C78.1253 82.977 78.84 85.3443 78.84 88.203C78.84 90.213 78.4603 92.0667 77.701 93.764C76.9417 95.4167 75.8473 96.8683 74.418 98.119C73.0333 99.3697 71.3583 100.33 69.393 101C67.4277 101.715 65.239 102.072 62.827 102.072Z" fill="#4285F4"/>
<path d="M94.8399 101V65.49L86.7329 68.907L83.5169 61.47L96.9839 55.172H103.617V101H94.8399Z" fill="#4285F4"/>
</svg>
