<svg width="18" height="18" viewBox="0 0 18 18" fill="none" xmlns="http://www.w3.org/2000/svg">
<path d="M3.85714 0C2.83416 0 1.85309 0.406377 1.12973 1.12973C0.406377 1.85309 0 2.83416 0 3.85714V14.1429C0 15.1658 0.406377 16.1469 1.12973 16.8703C1.85309 17.5936 2.83416 18 3.85714 18H14.1429C15.1658 18 16.1469 17.5936 16.8703 16.8703C17.5936 16.1469 18 15.1658 18 14.1429V3.85714C18 2.83416 17.5936 1.85309 16.8703 1.12973C16.1469 0.406377 15.1658 0 14.1429 0H3.85714ZM1.28571 3.85714C1.28571 3.17516 1.55663 2.5211 2.03887 2.03887C2.5211 1.55663 3.17516 1.28571 3.85714 1.28571H14.1429C14.8248 1.28571 15.4789 1.55663 15.9611 2.03887C16.4434 2.5211 16.7143 3.17516 16.7143 3.85714V14.1429C16.7143 14.8248 16.4434 15.4789 15.9611 15.9611C15.4789 16.4434 14.8248 16.7143 14.1429 16.7143H3.85714C3.17516 16.7143 2.5211 16.4434 2.03887 15.9611C1.55663 15.4789 1.28571 14.8248 1.28571 14.1429V3.85714ZM13.9551 6.24086C14.0759 6.12015 14.1437 5.95643 14.1437 5.78571C14.1437 5.615 14.0759 5.45128 13.9551 5.33057C13.8344 5.20986 13.6707 5.14204 13.5 5.14204C13.3293 5.14204 13.1656 5.20986 13.0449 5.33057L7.07143 11.3053L4.95514 9.18771C4.83443 9.067 4.67071 8.99919 4.5 8.99919C4.32929 8.99919 4.16557 9.067 4.04486 9.18771C3.92415 9.30843 3.85633 9.47215 3.85633 9.64286C3.85633 9.81357 3.92415 9.97729 4.04486 10.098L6.61629 12.6694C6.676 12.7293 6.74694 12.7768 6.82504 12.8092C6.90314 12.8416 6.98687 12.8583 7.07143 12.8583C7.15599 12.8583 7.23971 12.8416 7.31781 12.8092C7.39591 12.7768 7.46686 12.7293 7.52657 12.6694L13.9551 6.24086Z" fill="#4C956C"/>
</svg>
