<svg xmlns="http://www.w3.org/2000/svg" width="24" height="24" viewBox="0 0 24 24" fill="none">
<path d="M23.4256 0.578075C23.1665 0.320196 22.8415 0.138908 22.4864 0.0541355C22.1312 -0.0306374 21.7596 -0.015614 21.4124 0.0975546L1.3764 6.79737C1.00481 6.91541 0.676447 7.14119 0.432785 7.4462C0.189124 7.75121 0.0410922 8.12177 0.00738741 8.51107C-0.0263174 8.90038 0.0558163 9.29096 0.243415 9.63349C0.431014 9.97603 0.715663 10.2551 1.06141 10.4356L9.37436 14.5543L13.4829 22.9154C13.648 23.2427 13.9007 23.5174 14.2127 23.709C14.5247 23.9005 14.8837 24.0013 15.2496 24H15.3865C15.7783 23.9711 16.1524 23.8247 16.4601 23.5798C16.7679 23.335 16.995 23.003 17.1121 22.6271L23.8912 2.59626C24.0123 2.25019 24.0328 1.87677 23.9503 1.51948C23.8679 1.16218 23.6859 0.835712 23.4256 0.578075ZM2.2255 8.692L19.7142 2.84338L10.0043 12.5773L2.2255 8.692ZM15.3454 21.8308L11.456 14.0326L21.1659 4.29867L15.3454 21.8308Z" fill="#4C956C"/>
</svg>